<?xml version="1.0" encoding="UTF-8" standalone="no"?>
<!-- Created with Inkscape (http://www.inkscape.org/) -->

<svg
   width="140mm"
   height="90mm"
   viewBox="0 0 140 90"
   version="1.1"
   id="svg5"
   inkscape:version="1.1 (c68e22c387, 2021-05-23)"
   sodipodi:docname="logo.svg"
   xmlns:inkscape="http://www.inkscape.org/namespaces/inkscape"
   xmlns:sodipodi="http://sodipodi.sourceforge.net/DTD/sodipodi-0.dtd"
   xmlns="http://www.w3.org/2000/svg"
   xmlns:svg="http://www.w3.org/2000/svg">
  <sodipodi:namedview
     id="namedview7"
     pagecolor="#ffffff"
     bordercolor="#666666"
     borderopacity="1.0"
     inkscape:pageshadow="2"
     inkscape:pageopacity="0.0"
     inkscape:pagecheckerboard="0"
     inkscape:document-units="mm"
     showgrid="false"
     showguides="true"
     inkscape:guide-bbox="true"
     inkscape:zoom="1"
     inkscape:cx="224.5"
     inkscape:cy="284.5"
     inkscape:window-width="1920"
     inkscape:window-height="1027"
     inkscape:window-x="1912"
     inkscape:window-y="22"
     inkscape:window-maximized="1"
     inkscape:current-layer="layer1"
     height="90mm" />
  <defs
     id="defs2" />
  <g
     inkscape:label="Layer 1"
     inkscape:groupmode="layer"
     id="layer1">
    <path
       id="rect3027"
       style="fill:#a79a88;stroke-width:1.72957"
       d="m 313.84961,128.00391 -1.07031,0.45507 6.375,12.04102 z m -96.09375,40.78906 -87.39844,37.09961 16.42188,36.2168 85.43554,-36.26563 z"
       transform="scale(0.26458333)" />
    <path
       id="rect3027-7"
       style="fill:#a79a88;fill-opacity:1;stroke:none;stroke-width:1.72957;stroke-opacity:1"
       d="m 396.90234,92.388672 -86.34375,36.652348 18.66797,35.26171 83.13867,-35.29101 z"
       transform="scale(0.26458333)" />
  </g>
  <g
     inkscape:groupmode="layer"
     id="layer2"
     inkscape:label="Layer 2"
     style="display:inline">
    <path
       id="path438-7-5"
       style="fill:#977e78;fill-opacity:1;stroke:none;stroke-width:0.331965;stroke-opacity:1"
       d="m 119.39986,4.5148587 c -5.63865,0 -9.82975,1.761327 -13.93144,5.8549403 -3.04654,3.040524 -4.47804,5.490065 -5.46014,9.34465 -1.656974,6.503372 0.11552,13.337 4.75062,18.31671 3.39671,3.649274 7.72872,5.90096 12.23336,6.358787 6.74597,0.685633 12.48349,-1.45429 17.04857,-6.358787 4.63509,-4.97971 6.40707,-11.813338 4.75009,-18.31671 -0.98133,-3.851557 -2.41334,-6.303707 -5.45961,-9.348268 -4.11076,-4.1084453 -8.26028,-5.8513223 -13.93145,-5.8513223 z M 119.19212,12.84045 A 11.551964,11.551964 0 0 1 130.74387,24.392716 11.551964,11.551964 0 0 1 119.19212,35.944467 11.551964,11.551964 0 0 1 107.64038,24.392716 11.551964,11.551964 0 0 1 119.19212,12.84045 Z" />
    <path
       id="path438-7"
       style="fill:#9e85ac;fill-opacity:1;stroke:none;stroke-width:0.331965;stroke-opacity:1"
       d="m 72.045647,24.356011 c -5.63865,0 -9.829758,1.761327 -13.931448,5.85494 -3.046534,3.040525 -4.478036,5.490066 -5.460132,9.34465 -1.656977,6.503372 0.115519,13.337 4.750614,18.31671 3.396716,3.649274 7.728723,5.90096 12.233361,6.358787 6.745971,0.685633 12.483496,-1.45429 17.048572,-6.358787 4.635095,-4.97971 6.407073,-11.813338 4.750097,-18.31671 -0.981329,-3.851557 -2.413344,-6.303707 -5.459614,-9.348268 -4.110762,-4.108445 -8.260279,-5.851322 -13.93145,-5.851322 z m -0.207739,8.325591 A 11.551964,11.551964 0 0 1 83.389657,44.233868 11.551964,11.551964 0 0 1 71.837908,55.785619 11.551964,11.551964 0 0 1 60.286159,44.233868 11.551964,11.551964 0 0 1 71.837908,32.681602 Z" />
    <path
       id="path438"
       style="fill:#6a8599;fill-opacity:1;stroke:none;stroke-width:0.331965;stroke-opacity:1"
       d="m 24.546232,44.31949 c -5.63865,0 -9.829758,1.761327 -13.931448,5.85494 -3.0465341,3.040524 -4.4780361,5.490065 -5.4601321,9.344649 -1.6569768,6.503372 0.115519,13.337002 4.7506143,18.316712 3.3967158,3.64927 7.7287228,5.900962 12.2333608,6.358792 6.745971,0.68563 12.483496,-1.454292 17.048572,-6.358792 4.635095,-4.97971 6.407073,-11.81334 4.750097,-18.316712 C 42.955967,55.667522 41.523952,53.215372 38.477682,50.170812 34.36692,46.062367 30.217403,44.31949 24.546232,44.31949 Z m -0.207739,8.32559 A 11.551964,11.551964 0 0 1 35.890242,64.197351 11.551964,11.551964 0 0 1 24.338493,75.749101 11.551964,11.551964 0 0 1 12.786744,64.197351 11.551964,11.551964 0 0 1 24.338493,52.64508 Z" />
  </g>
</svg>
